<svg width="104" height="118" viewBox="0 0 104 118" fill="none" xmlns="http://www.w3.org/2000/svg">
<path d="M102.913 56.8103C106.016 39.7401 106.016 6.01348 52.4263 0.323412C38.2528 -1.12497 16.3202 2.59944 0.491415 5.39275C0.284504 5.39275 0.181048 5.59966 0.0775919 5.80657C-0.025864 6.01348 -0.025864 6.53076 0.0775919 6.94459C0.491415 8.18606 2.04325 10.4621 3.90546 11.2897C5.35384 12.0139 8.56097 11.807 8.9748 11.807C57.9094 7.46187 92.8775 18.1178 86.5667 53.9135C82.8423 74.6047 69.2896 100.365 31.942 100.365C24.3897 100.365 23.4586 99.7445 24.3897 93.6406C24.4932 92.8129 36.0802 30.9463 36.8044 24.739C36.8044 24.5321 36.701 24.3252 36.494 24.2217C36.0802 24.2217 27.9072 22.2561 25.9416 30.1187C25.5277 31.774 5.87112 105.021 4.94002 108.849C3.69855 114.228 7.3195 117.022 31.3213 117.022C92.0498 116.918 101.154 66.8455 102.913 56.8103Z" fill="white"/>
</svg>
