<svg width="104" height="120" viewBox="0 0 104 120" fill="none" xmlns="http://www.w3.org/2000/svg">
<path d="M102.888 58.6229C105.991 41.5527 105.991 7.82611 52.4012 2.13603C38.2278 0.687652 16.2951 4.41206 0.466391 7.20537C0.259479 7.20537 0.156023 7.41228 0.0525675 7.61919C-0.0508884 7.82611 -0.0508884 8.34338 0.0525675 8.75721C0.466391 9.99868 2.01823 12.2747 3.88043 13.1024C5.32882 13.8265 8.53595 13.6196 8.94977 13.6196C57.8844 9.27449 92.8525 19.9304 86.5417 55.7262C82.8172 76.4173 69.2645 102.178 31.917 102.178C24.3647 102.178 23.4336 101.557 24.3647 95.4532C24.4681 94.6256 36.0552 32.759 36.7794 26.5516C36.7794 26.3447 36.6759 26.1378 36.469 26.0343C36.0552 26.0343 27.8822 24.0687 25.9165 31.9313C25.5027 33.5866 5.8461 106.833 4.91499 110.661C3.67352 116.041 7.29448 118.834 31.2962 118.834C92.0248 118.731 101.129 68.6581 102.888 58.6229Z" fill="white"/>
</svg>
